<svg width="22" height="16" viewBox="0 0 22 16" fill="none" xmlns="http://www.w3.org/2000/svg">
<path d="M18.3252 1.32631C16.9454 0.71242 15.4659 0.260131 13.919 0.00108666C13.8908 -0.00391282 13.8627 0.00858115 13.8481 0.0335697C13.6579 0.361747 13.4471 0.789881 13.2995 1.12639C11.6357 0.884845 9.98036 0.884845 8.35064 1.12639C8.20302 0.782401 7.98459 0.361747 7.79346 0.0335697C7.77895 0.00941489 7.75081 -0.00307908 7.72263 0.00108666C6.17655 0.259303 4.69702 0.711592 3.31645 1.32631C3.3045 1.33131 3.29426 1.33965 3.28746 1.35047C0.481098 5.4161 -0.287681 9.3818 0.0894566 13.2983C0.091163 13.3175 0.102255 13.3358 0.117614 13.3475C1.96917 14.666 3.76272 15.4665 5.52296 15.9971C5.55113 16.0054 5.58098 15.9954 5.59891 15.9729C6.01529 15.4215 6.38646 14.8401 6.7047 14.2287C6.72349 14.1929 6.70556 14.1504 6.66717 14.1363C6.07843 13.9197 5.51784 13.6557 4.97858 13.3558C4.93593 13.3317 4.93251 13.2725 4.97175 13.2442C5.08523 13.1617 5.19874 13.0759 5.3071 12.9893C5.3267 12.9735 5.35402 12.9701 5.37707 12.9801C8.91975 14.5486 12.7551 14.5486 16.256 12.9801C16.279 12.9693 16.3064 12.9726 16.3268 12.9885C16.4352 13.0751 16.5487 13.1617 16.663 13.2442C16.7023 13.2725 16.6997 13.3317 16.657 13.3558C16.1178 13.6615 15.5572 13.9197 14.9676 14.1354C14.9292 14.1496 14.9121 14.1929 14.9309 14.2287C15.256 14.8393 15.6272 15.4207 16.0359 15.9721C16.0529 15.9954 16.0836 16.0054 16.1118 15.9971C17.8806 15.4665 19.6741 14.666 21.5257 13.3475C21.5419 13.3358 21.5521 13.3183 21.5539 13.2992C22.0052 8.77122 20.7979 4.83804 18.3533 1.3513C18.3473 1.33965 18.3371 1.33131 18.3252 1.32631ZM7.23375 10.9136C6.16716 10.9136 5.28832 9.96403 5.28832 8.79789C5.28832 7.63175 6.15011 6.6822 7.23375 6.6822C8.32589 6.6822 9.19622 7.64009 9.17915 8.79789C9.17915 9.96403 8.31735 10.9136 7.23375 10.9136ZM14.4266 10.9136C13.3601 10.9136 12.4812 9.96403 12.4812 8.79789C12.4812 7.63175 13.343 6.6822 14.4266 6.6822C15.5188 6.6822 16.3891 7.64009 16.3721 8.79789C16.3721 9.96403 15.5188 10.9136 14.4266 10.9136Z" fill="#F5F5F5"/>
</svg>
