<svg width="20" height="16" viewBox="0 0 20 16" fill="none" xmlns="http://www.w3.org/2000/svg">
<path d="M17.6839 3.98749C17.6964 4.16248 17.6964 4.33751 17.6964 4.5125C17.6964 9.84997 13.6339 16 6.20892 16C3.92141 16 1.79642 15.3375 0.00891113 14.1875C0.333923 14.225 0.646392 14.2375 0.983909 14.2375C2.87138 14.2375 4.60891 13.6 5.99641 12.5125C4.22141 12.475 2.7339 11.3125 2.22139 9.7125C2.47142 9.74997 2.7214 9.77498 2.98392 9.77498C3.34641 9.77498 3.70894 9.72496 4.04642 9.63751C2.19642 9.26247 0.808879 7.63749 0.808879 5.67499V5.62501C1.34636 5.92501 1.97141 6.11251 2.63386 6.13748C1.54636 5.41247 0.833888 4.17498 0.833888 2.77497C0.833888 2.02499 1.03385 1.33749 1.38387 0.737481C3.37138 3.18748 6.3589 4.78745 9.70887 4.96248C9.64638 4.66248 9.60887 4.35001 9.60887 4.03751C9.60887 1.81248 11.4089 0 13.6464 0C14.8089 0 15.8589 0.487499 16.5964 1.275C17.5089 1.10001 18.3838 0.762491 19.1589 0.300002C18.8588 1.23752 18.2214 2.02502 17.3839 2.52499C18.1964 2.43753 18.9839 2.21248 19.7089 1.90001C19.159 2.69998 18.4714 3.41245 17.6839 3.98749V3.98749Z" fill="#F8F9FA"/>
</svg>
