<svg width="841" height="31" viewBox="0 0 841 31" fill="none" xmlns="http://www.w3.org/2000/svg">
<path d="M20.1199 30.4C26.6399 30.4 33.2799 30.04 40.0799 28.96C41.9199 21.6 44.3599 13.68 45.9599 6.28L47.0399 1.2H38.4799L37.3999 6.28C36.1599 11.96 34.6799 18.24 33.1199 23.84C29.2399 24.32 25.1999 24.4 21.3999 24.4C17.5599 24.4 13.5999 24.32 9.83993 23.84C10.7599 18.24 11.8399 11.96 13.0799 6.28L14.1599 1.2H1.15993L0.999932 1.88L4.87993 4.76L4.55993 6.28C2.95993 13.64 1.59993 21.6 0.679932 28.96C7.07993 30.04 13.5599 30.4 20.1199 30.4Z" fill="#F9F9F9"/>
<path d="M99.7612 1.2H91.0812L87.3212 18.84L75.1612 1.68C68.8812 1.32 63.8012 1.2 58.4412 1.2H52.5212L52.3612 1.88L56.4012 4.88L51.0812 30H59.8012L64.5612 7.48C66.0012 7.48 67.3212 7.52 68.6412 7.6L84.9212 30H93.6412L99.7612 1.2Z" fill="#F9F9F9"/>
<path d="M146.249 1.36C139.369 0.960002 132.489 0.800002 125.529 0.800002C118.609 0.800002 111.649 0.960002 104.569 1.36L103.289 7.56C111.849 7.24 116.529 7.12 119.809 7.08L114.969 30H123.729L128.569 7.08C131.849 7.12 136.409 7.24 144.889 7.56L146.249 1.36Z" fill="#F9F9F9"/>
<path d="M162.386 1.2H149.466L149.306 1.88L153.226 4.76L147.866 30H156.266L162.386 1.2Z" fill="#F9F9F9"/>
<path d="M208.827 1.36C201.947 0.960002 195.067 0.800002 188.107 0.800002C181.187 0.800002 174.227 0.960002 167.147 1.36L165.867 7.56C174.427 7.24 179.107 7.12 182.387 7.08L177.547 30H186.307L191.147 7.08C194.427 7.12 198.987 7.24 207.467 7.56L208.827 1.36Z" fill="#F9F9F9"/>
<path d="M211.404 29.56C217.244 30.24 222.884 30.44 228.844 30.44C234.684 30.44 240.564 30.24 246.644 29.56C247.804 26.32 248.684 23.48 249.444 20.44H241.004C240.724 21.56 240.364 22.72 239.924 23.88C236.684 24.32 233.284 24.4 230.124 24.4C226.964 24.4 223.604 24.32 220.524 23.88C221.444 18.32 222.644 12.08 223.804 6.52L224.964 1.2H212.044L211.884 1.88L215.804 4.76L215.404 6.52C213.844 13.96 212.404 22.12 211.404 29.56Z" fill="#F9F9F9"/>
<path d="M280.231 24.64C275.351 24.64 270.071 24.52 265.151 24.36L266.551 17.8H287.671L288.551 13.44H267.471L268.911 6.76C273.471 6.68 278.431 6.56 283.031 6.56C288.111 6.56 294.151 6.68 299.151 7.12L300.391 1.32C294.591 0.920002 288.991 0.760002 283.191 0.760002H282.991C280.631 0.760002 278.231 0.800002 275.791 0.840002H275.431C268.711 0.920002 261.591 1.16 257.151 1.32L256.991 2.04L260.951 4.76L255.591 29.88C262.151 30.28 269.031 30.44 275.791 30.44C281.991 30.44 288.071 30.28 294.431 29.88L295.671 24.08C290.751 24.52 285.111 24.64 280.231 24.64Z" fill="#F9F9F9"/>
<path d="M329.516 0.760002H328.076C320.116 0.800002 310.516 1 304.676 1.24L304.556 1.92L308.556 4.76L303.196 30C314.316 30.28 318.636 30.44 323.116 30.44C329.796 30.44 336.676 30.08 343.756 29C346.636 24.44 348.356 20.16 349.316 15.6C350.276 11.04 350.396 6.76 349.436 2.2C342.836 1.16 336.116 0.760002 329.516 0.760002ZM324.356 24.72C319.876 24.72 316.516 24.52 312.796 24.2L316.476 6.96C320.276 6.68 323.716 6.48 328.196 6.48C332.876 6.48 336.436 6.6 340.356 7.04C340.636 9.92 340.556 12.64 339.916 15.6C339.276 18.56 338.236 21.28 336.716 24.16C332.636 24.6 329.036 24.72 324.356 24.72Z" fill="#F9F9F9"/>
<path d="M386.788 6.6H398.308C402.668 6.6 406.268 6.6 410.148 6.76C410.028 8.24 409.828 9.52 409.508 11.04C409.188 12.6 408.748 14.12 408.228 15.68C403.908 15.88 399.588 15.92 394.628 15.92H390.188L390.028 16.76L404.108 30H414.788L405.588 21.24C408.868 21.12 412.228 20.84 415.228 20.68C416.748 17.16 417.588 13.72 418.308 10.4C418.908 7.56 419.068 4.88 419.188 2.04C413.188 1.28 405.548 1.2 399.508 1.2H375.028L374.868 1.88L378.788 4.76L373.428 30H381.788L386.788 6.6Z" fill="#F9F9F9"/>
<path d="M448.512 24.64C443.632 24.64 438.352 24.52 433.432 24.36L434.832 17.8H455.952L456.832 13.44H435.752L437.192 6.76C441.752 6.68 446.712 6.56 451.312 6.56C456.392 6.56 462.432 6.68 467.432 7.12L468.672 1.32C462.872 0.920002 457.272 0.760002 451.472 0.760002H451.272C448.912 0.760002 446.512 0.800002 444.072 0.840002H443.712C436.992 0.920002 429.872 1.16 425.432 1.32L425.272 2.04L429.232 4.76L423.872 29.88C430.432 30.28 437.312 30.44 444.072 30.44C450.272 30.44 456.352 30.28 462.712 29.88L463.952 24.08C459.032 24.52 453.392 24.64 448.512 24.64Z" fill="#F9F9F9"/>
<path d="M491.401 24.16C487.601 24.16 483.601 24.08 479.921 23.64C480.281 20.88 480.641 18.36 481.241 15.6C481.841 12.84 482.521 10.32 483.361 7.56C487.201 7.12 491.241 7.04 495.041 7.04C498.801 7.04 502.641 7.12 506.321 7.56C506.201 8.96 506.041 10.2 505.801 11.56H515.361C516.001 8.32 516.361 5.28 516.601 1.92C509.921 1.08 503.201 0.760002 496.361 0.760002C489.521 0.760002 482.561 1.2 475.441 2.24C473.881 6.8 472.681 11.04 471.721 15.6C470.761 20.16 470.121 24.4 469.761 28.96C476.441 30 483.201 30.44 490.041 30.44C496.881 30.44 503.801 30 510.841 28.96C512.001 25.76 512.881 22.84 513.641 19.6H504.121C503.721 21.04 503.401 22.24 502.881 23.64C499.041 24.08 495.161 24.16 491.401 24.16Z" fill="#F9F9F9"/>
<path d="M561.804 29.28C563.164 24.6 564.284 20.24 565.284 15.6C566.284 10.96 567.004 6.6 567.644 1.92C560.724 1.12 553.804 0.760002 546.764 0.760002C539.724 0.760002 532.644 1.12 525.404 1.92C524.044 6.6 522.924 10.96 521.924 15.6C520.924 20.24 520.204 24.6 519.564 29.28C526.484 30.08 533.404 30.44 540.444 30.44C547.484 30.44 554.564 30.08 561.804 29.28ZM531.124 15.6C531.724 12.84 532.404 10.32 533.284 7.56C537.284 7.2 541.484 7.04 545.444 7.04C549.404 7.04 553.484 7.2 557.364 7.56C557.044 10.32 556.684 12.84 556.084 15.6C555.484 18.36 554.804 20.88 553.924 23.64C549.884 24 545.764 24.16 541.804 24.16C537.844 24.16 533.684 24 529.844 23.64C530.164 20.88 530.524 18.36 531.124 15.6Z" fill="#F9F9F9"/>
<path d="M585.351 6.6H596.871C601.231 6.6 604.831 6.6 608.711 6.76C608.591 8.24 608.391 9.52 608.071 11.04C607.751 12.6 607.311 14.12 606.791 15.68C602.471 15.88 598.151 15.92 593.191 15.92H588.751L588.591 16.76L602.671 30H613.351L604.151 21.24C607.431 21.12 610.791 20.84 613.791 20.68C615.311 17.16 616.151 13.72 616.871 10.4C617.471 7.56 617.631 4.88 617.751 2.04C611.751 1.28 604.111 1.2 598.071 1.2H573.591L573.431 1.88L577.351 4.76L571.991 30H580.351L585.351 6.6Z" fill="#F9F9F9"/>
<path d="M648.875 0.760002H647.435C639.475 0.800002 629.875 1 624.035 1.24L623.915 1.92L627.915 4.76L622.555 30C633.675 30.28 637.995 30.44 642.475 30.44C649.155 30.44 656.035 30.08 663.115 29C665.995 24.44 667.715 20.16 668.675 15.6C669.635 11.04 669.755 6.76 668.795 2.2C662.195 1.16 655.475 0.760002 648.875 0.760002ZM643.715 24.72C639.235 24.72 635.875 24.52 632.155 24.2L635.835 6.96C639.635 6.68 643.075 6.48 647.555 6.48C652.235 6.48 655.795 6.6 659.715 7.04C659.995 9.92 659.915 12.64 659.275 15.6C658.635 18.56 657.595 21.28 656.075 24.16C651.995 24.6 648.395 24.72 643.715 24.72Z" fill="#F9F9F9"/>
<path d="M689.964 1.2H677.044L676.884 1.88L680.804 4.76L675.444 30H683.844L689.964 1.2Z" fill="#F9F9F9"/>
<path d="M742.605 1.2H733.925L730.165 18.84L718.005 1.68C711.725 1.32 706.645 1.2 701.285 1.2H695.365L695.205 1.88L699.245 4.88L693.925 30H702.645L707.405 7.48C708.845 7.48 710.165 7.52 711.485 7.6L727.765 30H736.485L742.605 1.2Z" fill="#F9F9F9"/>
<path d="M767.132 24.16C763.252 24.16 758.652 24.08 754.892 23.6C755.212 20.88 755.532 18.36 756.132 15.6C756.732 12.84 757.412 10.32 758.292 7.56C763.412 7.08 769.652 7.04 774.732 7.04C780.172 7.04 786.572 7.12 791.972 7.56L793.212 1.6C786.292 0.960002 779.212 0.760002 772.092 0.760002C765.172 0.760002 758.212 1 751.092 1.64C749.492 6.36 748.252 10.88 747.252 15.6C746.252 20.24 745.652 24.6 745.252 29.24C752.012 30.12 758.852 30.44 765.772 30.44C772.692 30.44 779.652 30.12 786.772 29.24C787.972 26 789.212 21.84 791.052 13.48H773.052L772.012 18.36H781.092C780.492 21 780.052 22.64 779.572 23.6C775.652 24.08 770.972 24.16 767.132 24.16Z" fill="#F9F9F9"/>
<path d="M828.632 18.8C828.592 19.68 828.472 20.52 828.272 21.4C828.072 22.44 827.792 23.32 827.472 24.2C823.032 24.52 818.512 24.72 812.912 24.72C806.752 24.72 801.872 24.52 796.992 24.24L795.832 29.72C802.152 30.24 808.552 30.4 814.912 30.4C821.312 30.4 827.872 30.12 834.512 29.4C835.632 26.6 836.352 24.28 836.952 21.44C837.512 18.8 837.712 16.64 837.792 13.96C827.792 12.16 817.592 12.44 807.672 11.76C807.752 10.96 807.792 10.28 807.952 9.52C808.152 8.64 808.392 7.84 808.712 7.04C813.392 6.68 817.952 6.44 823.552 6.44C829.512 6.44 834.192 6.72 839.032 7L840.192 1.48C833.832 0.960002 827.472 0.800002 821.032 0.800002C814.752 0.800002 808.312 1.12 801.752 1.8C800.672 4.52 799.952 6.76 799.392 9.48C798.832 11.96 798.632 14.16 798.592 16.68C808.592 18.28 818.592 18.24 828.632 18.8Z" fill="#F9F9F9"/>
</svg>
