<svg width="129" height="40" viewBox="0 0 129 40" fill="none" xmlns="http://www.w3.org/2000/svg">
<path d="M26.16 39.5333C34.8533 39.5333 43.7067 39.0533 52.7733 37.6133C55.2267 27.8 58.48 17.24 60.6133 7.37334L62.0533 0.600006H50.64L49.2 7.37334C47.5467 14.9467 45.5733 23.32 43.4933 30.7867C38.32 31.4267 32.9333 31.5333 27.8667 31.5333C22.7467 31.5333 17.4667 31.4267 12.4533 30.7867C13.68 23.32 15.12 14.9467 16.7733 7.37334L18.2133 0.600006H0.879991L0.666657 1.50667L5.83999 5.34667L5.41332 7.37334C3.27999 17.1867 1.46666 27.8 0.23999 37.6133C8.77332 39.0533 17.4133 39.5333 26.16 39.5333Z" fill="#F9F9F9"/>
<path d="M84.9883 7.80001H100.348C106.162 7.80001 110.962 7.80001 116.135 8.01334C115.975 9.98667 115.708 11.6933 115.282 13.72C114.855 15.8 114.268 17.8267 113.575 19.9067C107.815 20.1733 102.055 20.2267 95.4417 20.2267H89.5217L89.3083 21.3467L108.082 39H122.322L110.055 27.32C114.428 27.16 118.908 26.7867 122.908 26.5733C124.935 21.88 126.055 17.2933 127.015 12.8667C127.815 9.08001 128.028 5.50667 128.188 1.72001C120.188 0.706673 110.002 0.600006 101.948 0.600006H69.3083L69.095 1.50667L74.3217 5.34667L67.175 39H78.3217L84.9883 7.80001Z" fill="#F9F9F9"/>
</svg>
