<svg width="208" height="40" viewBox="0 0 208 40" fill="none" xmlns="http://www.w3.org/2000/svg">
<path d="M10.56 15.2C13.82 15.2 17.14 15.02 20.54 14.48C21.46 10.8 22.68 6.84 23.48 3.14L24.02 0.599999H19.74L19.2 3.14C18.58 5.98 17.84 9.12 17.06 11.92C15.12 12.16 13.1 12.2 11.2 12.2C9.28 12.2 7.3 12.16 5.42 11.92C5.88 9.12 6.42 5.98 7.04 3.14L7.58 0.599999H1.08L1 0.939999L2.94 2.38L2.78 3.14C1.98 6.82 1.3 10.8 0.84 14.48C4.04 15.02 7.28 15.2 10.56 15.2ZM47.1606 2.4H42.9806L41.4406 9.64L36.5206 2.62C33.6206 2.46 31.3006 2.4 28.8406 2.4H26.0806L26.0206 2.72L27.9206 4.16L25.6206 15H29.8006L31.8406 5.4C32.3806 5.4 32.8806 5.42 33.3806 5.46L40.3206 15H44.5006L47.1606 2.4ZM67.5003 2.44C64.4603 2.28 61.4403 2.2 58.3603 2.2C55.2803 2.2 52.2203 2.28 49.0803 2.44L48.4403 5.44L55.6003 5.22L53.5403 15H57.7403L59.8003 5.22L66.8603 5.44L67.5003 2.44ZM75.0369 2.4H68.6569L68.5969 2.72L70.4769 4.16L68.1769 15H72.3769L75.0369 2.4ZM95.3441 2.44C92.3041 2.28 89.2841 2.2 86.2041 2.2C83.1241 2.2 80.0641 2.28 76.9241 2.44L76.2841 5.44L83.4441 5.22L81.3841 15H85.5841L87.6441 5.22L94.7041 5.44L95.3441 2.44ZM96.4406 14.8C99.0406 15.1 101.541 15.2 104.201 15.2C106.801 15.2 109.421 15.1 112.141 14.8C112.661 13.3 113.041 12 113.401 10.6H109.201C109.081 11.04 108.921 11.52 108.781 11.96C107.481 12.16 106.101 12.2 104.841 12.2C103.581 12.2 102.221 12.16 101.001 11.96C101.381 9.64 101.921 7 102.401 4.66L102.881 2.4H96.5006L96.4406 2.72L98.3206 4.16L98.2006 4.66C97.5206 7.94 96.8806 11.52 96.4406 14.8ZM127.123 12.3C125.043 12.3 122.803 12.26 120.722 12.22L121.243 9.8H130.183L130.623 7.64H121.703L122.223 5.16C124.123 5.14 126.203 5.1 128.122 5.1C130.343 5.1 133.023 5.14 135.203 5.34L135.823 2.44C133.243 2.28 130.763 2.2 128.202 2.2H128.102C124.503 2.2 119.403 2.32 116.403 2.44L116.323 2.78L118.243 4.16L115.943 14.96C118.843 15.12 121.883 15.2 124.863 15.2C127.623 15.2 130.343 15.12 133.223 14.96L133.843 12.06C131.703 12.26 129.223 12.3 127.123 12.3ZM148.536 2.2C144.916 2.2 140.376 2.28 137.376 2.42L137.316 2.74L139.236 4.16L136.936 15C142.076 15.12 143.856 15.2 145.716 15.2C148.676 15.2 151.716 15.02 154.856 14.52C156.156 12.54 156.916 10.68 157.336 8.7C157.756 6.72 157.776 4.86 157.316 2.88C154.396 2.4 151.456 2.2 148.536 2.2ZM146.336 12.34C144.476 12.34 143.196 12.26 141.716 12.12L143.176 5.26C144.696 5.14 146.016 5.06 147.876 5.06C149.836 5.06 151.236 5.1 152.776 5.28C152.916 6.44 152.896 7.52 152.636 8.7C152.396 9.88 151.956 10.96 151.336 12.12C149.696 12.3 148.296 12.34 146.336 12.34ZM6.98 27.3H12.74C14.92 27.3 16.72 27.3 18.66 27.38C18.6 28.12 18.5 28.76 18.34 29.52C18.18 30.3 17.96 31.06 17.7 31.84C15.54 31.94 13.38 31.96 10.9 31.96H8.68L8.6 32.38L15.64 39H20.98L16.38 34.62C18.02 34.56 19.7 34.42 21.2 34.34C21.96 32.58 22.38 30.86 22.74 29.2C23.04 27.78 23.12 26.44 23.18 25.02C20.18 24.64 16.36 24.6 13.34 24.6H1.1L1.02 24.94L2.98 26.38L0.3 39H4.48L6.98 27.3ZM36.3022 36.3C34.2222 36.3 31.9822 36.26 29.9022 36.22L30.4222 33.8H39.3622L39.8022 31.64H30.8822L31.4022 29.16C33.3022 29.14 35.3822 29.1 37.3022 29.1C39.5222 29.1 42.2022 29.14 44.3822 29.34L45.0022 26.44C42.4222 26.28 39.9422 26.2 37.3822 26.2H37.2822C33.6822 26.2 28.5822 26.32 25.5822 26.44L25.5022 26.78L27.4222 28.16L25.1222 38.96C28.0222 39.12 31.0622 39.2 34.0422 39.2C36.8022 39.2 39.5222 39.12 42.4022 38.96L43.0222 36.06C40.8822 36.26 38.4022 36.3 36.3022 36.3ZM54.8913 36.2C53.3713 36.2 51.5913 36.16 50.1313 35.96C50.2713 34.84 50.4313 33.82 50.6512 32.7C50.8913 31.58 51.1713 30.56 51.5113 29.44C53.0513 29.24 54.8713 29.2 56.3913 29.2C57.8513 29.2 59.6312 29.24 61.0912 29.44C61.0312 30 60.9913 30.5 60.8913 31.02H65.2313C65.5113 29.58 65.6712 28.22 65.7713 26.74C62.8913 26.34 59.9713 26.2 57.0313 26.2C54.0513 26.2 51.0313 26.4 47.9512 26.88C47.2713 28.86 46.7313 30.72 46.3113 32.7C45.8913 34.68 45.6513 36.54 45.4912 38.52C48.3713 39 51.2713 39.2 54.2513 39.2C57.1913 39.2 60.2113 39 63.2713 38.52C63.7913 37.1 64.1912 35.78 64.5313 34.38H60.1913C60.0513 34.94 59.8913 35.42 59.7112 35.96C58.1712 36.16 56.3513 36.2 54.8913 36.2ZM85.7247 38.66C86.3247 36.64 86.8047 34.72 87.2247 32.7C87.6647 30.68 87.9847 28.76 88.2647 26.74C85.2247 26.36 82.1647 26.2 79.0647 26.2C75.9647 26.2 72.8047 26.36 69.6047 26.74C69.0047 28.76 68.5247 30.68 68.0847 32.7C67.6647 34.72 67.3447 36.64 67.0647 38.66C70.1047 39.04 73.1847 39.2 76.2847 39.2C79.3847 39.2 82.5247 39.04 85.7247 38.66ZM72.4647 32.7C72.7047 31.58 72.9647 30.56 73.3247 29.44C75.0047 29.28 76.7847 29.2 78.4247 29.2C80.0647 29.2 81.7847 29.28 83.3847 29.44C83.2647 30.56 83.1047 31.58 82.8647 32.7C82.6447 33.82 82.3647 34.84 82.0047 35.96C80.3247 36.12 78.5647 36.2 76.9247 36.2C75.2847 36.2 73.5447 36.12 71.9447 35.96C72.0647 34.84 72.2447 33.82 72.4647 32.7ZM96.0394 29.08H100.739C102.559 29.08 103.999 29.08 105.559 29.14C105.519 29.74 105.439 30.26 105.319 30.86C105.179 31.48 105.019 32.08 104.819 32.68C103.059 32.78 101.339 32.78 99.2994 32.78H97.1194L97.0394 33.16L102.999 39H108.299L104.579 35.32C105.859 35.28 107.119 35.24 108.319 35.18C109.019 33.58 109.379 32.04 109.699 30.54C109.979 29.28 110.059 28.06 110.099 26.8C107.459 26.44 103.979 26.4 101.319 26.4H90.2194L90.1594 26.72L92.0394 28.16L89.7394 39H93.9194L96.0394 29.08ZM123.481 26.2C119.861 26.2 115.321 26.28 112.321 26.42L112.261 26.74L114.181 28.16L111.881 39C117.021 39.12 118.801 39.2 120.661 39.2C123.621 39.2 126.661 39.02 129.801 38.52C131.101 36.54 131.861 34.68 132.281 32.7C132.701 30.72 132.721 28.86 132.261 26.88C129.341 26.4 126.401 26.2 123.481 26.2ZM121.281 36.34C119.421 36.34 118.141 36.26 116.661 36.12L118.121 29.26C119.641 29.14 120.961 29.06 122.821 29.06C124.781 29.06 126.181 29.1 127.721 29.28C127.861 30.44 127.841 31.52 127.581 32.7C127.341 33.88 126.901 34.96 126.281 36.12C124.641 36.3 123.241 36.34 121.281 36.34ZM141.623 26.4H135.243L135.183 26.72L137.063 28.16L134.763 39H138.963L141.623 26.4ZM164.77 26.4H160.59L159.05 33.64L154.13 26.62C151.23 26.46 148.91 26.4 146.45 26.4H143.69L143.63 26.72L145.53 28.16L143.23 39H147.41L149.45 29.4C149.99 29.4 150.49 29.42 150.99 29.46L157.93 39H162.11L164.77 26.4ZM175.35 36.2C173.81 36.2 171.87 36.16 170.41 35.96C170.53 34.84 170.69 33.82 170.91 32.7C171.15 31.58 171.43 30.52 171.79 29.4C173.93 29.2 176.67 29.2 178.77 29.2C181.03 29.2 183.73 29.28 186.01 29.44L186.63 26.52C183.59 26.24 180.55 26.2 177.49 26.2C174.49 26.2 171.47 26.3 168.41 26.6C167.71 28.66 167.15 30.64 166.71 32.7C166.29 34.72 166.03 36.64 165.85 38.66C168.77 39.06 171.71 39.2 174.71 39.2C177.69 39.2 180.71 39.06 183.79 38.66C184.33 37.22 184.89 35.3 185.71 31.64H177.73L177.21 34.04H180.93C180.69 35 180.51 35.62 180.35 35.96C178.79 36.16 176.85 36.2 175.35 36.2ZM201.831 34.22C201.831 34.56 201.771 34.88 201.711 35.22C201.631 35.6 201.511 35.94 201.411 36.24C199.511 36.38 197.571 36.48 195.111 36.48C192.411 36.48 190.351 36.38 188.251 36.26L187.691 38.9C190.491 39.12 193.311 39.2 196.111 39.2C198.951 39.2 201.831 39.06 204.771 38.74C205.271 37.52 205.591 36.46 205.851 35.24C206.111 34.06 206.211 33.1 206.231 31.92C201.931 31.1 197.511 31.22 193.231 30.96C193.231 30.66 193.271 30.38 193.331 30.08C193.411 29.76 193.491 29.46 193.611 29.16C195.651 29.02 197.571 28.92 200.031 28.92C202.651 28.92 204.651 29.04 206.711 29.14L207.271 26.5C204.471 26.28 201.671 26.2 198.831 26.2C196.051 26.2 193.191 26.34 190.291 26.66C189.791 27.86 189.471 28.86 189.211 30.08C188.991 31.18 188.871 32.16 188.871 33.3C193.171 34.04 197.471 34.02 201.831 34.22Z" fill="#F9F9F9"/>
</svg>
