<?xml version="1.0" standalone="no"?>
<!DOCTYPE svg PUBLIC "-//W3C//DTD SVG 20010904//EN"
 "http://www.w3.org/TR/2001/REC-SVG-20010904/DTD/svg10.dtd">
<svg version="1.0" xmlns="http://www.w3.org/2000/svg"
 width="2000.000000pt" height="2000.000000pt" viewBox="0 0 2000.000000 2000.000000"
 preserveAspectRatio="xMidYMid meet">
<metadata>
Created by potrace 1.14, written by Peter Selinger 2001-2017
</metadata>
<g transform="translate(0.000000,2000.000000) scale(0.100000,-0.100000)"
fill="#000000" stroke="none">
<path d="M0 10000 l0 -10000 10000 0 10000 0 0 10000 0 10000 -10000 0 -10000
0 0 -10000z m4965 2118 c-8 -24 -244 -1143 -289 -1373 -94 -475 -336 -1849
-336 -1906 0 -13 29 -18 166 -32 837 -87 2234 -85 3107 5 109 11 120 14 128
35 15 41 176 651 253 958 146 590 270 1130 426 1858 54 252 100 460 102 463 3
2 284 3 625 2 l620 -3 -48 -225 c-136 -637 -180 -831 -280 -1230 -60 -239
-214 -822 -342 -1295 -129 -473 -258 -954 -287 -1070 -29 -115 -56 -213 -60
-218 -14 -17 -578 -91 -1000 -131 -662 -63 -1128 -82 -1995 -80 -809 1 -1379
31 -2035 105 -180 20 -534 69 -653 89 l-68 12 6 32 c3 17 14 103 26 191 114
887 296 1946 505 2933 41 194 74 358 74 365 0 7 -124 104 -275 216 -152 112
-278 208 -281 212 -2 4 1 28 7 53 l11 46 949 0 c754 0 947 -3 944 -12z m10205
2 c480 -11 767 -23 1115 -46 229 -15 715 -61 722 -68 11 -11 -29 -569 -58
-806 -63 -511 -276 -1326 -471 -1800 l-43 -105 -65 -8 c-81 -9 -771 -52 -1097
-69 -133 -6 -240 -15 -237 -20 3 -4 283 -272 622 -595 339 -322 637 -606 662
-629 l45 -44 -780 0 -780 1 -1026 964 -1025 965 10 58 9 59 931 6 c897 6 1619
21 1681 36 28 7 31 14 77 162 60 191 129 469 163 654 29 157 71 473 63 480
-15 15 -796 25 -2015 25 -1317 0 -1392 -1 -1397 -17 -3 -10 -165 -767 -360
-1683 -196 -916 -358 -1675 -361 -1687 l-5 -23 -611 0 c-577 0 -610 1 -605 18
8 28 776 3649 776 3658 0 5 -129 103 -286 218 -180 131 -283 213 -280 222 3 7
8 29 12 48 l6 36 2087 0 c1147 0 2282 -5 2521 -10z"/>
</g>
</svg>
